<svg width="67" height="63" viewBox="0 0 67 63" fill="none" xmlns="http://www.w3.org/2000/svg">
<circle cx="36" cy="31" r="30" fill="white"/>
<path d="M38.5102 25.5293C38.5102 28.0329 36.4807 30.0624 33.9771 30.0624C31.4736 30.0624 29.444 28.0329 29.444 25.5293C29.444 23.0258 31.4736 20.9962 33.9771 20.9962C36.4807 20.9962 38.5102 23.0258 38.5102 25.5293Z" fill="#915EFF" stroke="white"/>
<path d="M56.0253 27.7826C56.0253 29.3881 54.7238 30.6896 53.1183 30.6896C51.5128 30.6896 50.2113 29.3881 50.2113 27.7826C50.2113 26.1771 51.5128 24.8756 53.1183 24.8756C54.7238 24.8756 56.0253 26.1771 56.0253 27.7826Z" fill="#915EFF" stroke="white"/>
<path d="M31.2108 51.3843L31.2199 51.3887L31.2291 51.3928C33.0088 52.1717 35.1862 52.2197 36.6106 52.1437C37.0898 52.1182 37.4303 51.7869 37.498 51.3751C37.5644 50.9713 37.3592 50.5519 36.9368 50.3545L29.0791 46.6829C28.7011 46.5063 28.2893 46.5843 28.0157 46.8303C27.7344 47.0833 27.6171 47.5013 27.8028 47.9042C28.0678 48.4787 28.4075 49.0176 28.8145 49.5064C29.4713 50.295 30.288 50.9351 31.2108 51.3843ZM6.79926 24.1177C9.9755 10.5585 21.9076 0.5 36.0988 0.5C52.7374 0.5 66.2463 14.3413 66.2463 31.4219C66.2463 48.5024 52.7374 62.3437 36.0988 62.3437C23.1373 62.3437 12.0861 53.9351 7.82786 42.1476C7.68215 41.7443 7.32968 41.5262 6.98619 41.4758C6.64666 41.426 6.26174 41.5292 5.99343 41.823C5.46108 42.4061 4.91533 42.676 4.39039 42.676C3.49157 42.676 2.5182 41.8635 1.74037 40.1771C0.982302 38.5336 0.5 36.229 0.5 33.6597C0.5 31.0903 0.982301 28.7898 1.74019 27.1503C2.51448 25.4754 3.48293 24.6653 4.37954 24.6588C4.64132 24.6718 4.8957 24.7348 5.12995 24.842C5.44228 24.9849 5.79985 24.9841 6.09915 24.8751C6.40151 24.765 6.70557 24.5176 6.79926 24.1177ZM42.0338 9.10959C41.4381 8.54827 40.1198 7.38152 38.4213 6.35245C36.7303 5.32797 34.6124 4.40918 32.4285 4.40918C30.2198 4.40918 28.0759 5.35325 26.3734 6.39485C24.6628 7.44138 23.3455 8.61892 22.7796 9.15332C22.4083 9.50398 22.4148 10.0808 22.7581 10.4322C22.9665 10.6455 23.2472 10.7259 23.4883 10.7272C23.7297 10.7285 24.0052 10.6514 24.2151 10.4537C24.7882 9.91362 25.9873 8.87184 27.4832 7.96809C28.9878 7.05909 30.7387 6.32288 32.4285 6.32288C34.1359 6.32288 35.906 7.08144 37.4215 8.00895C38.9276 8.93071 40.1269 9.98488 40.6807 10.5034C41.0642 10.8624 41.6752 10.8659 42.0547 10.4775C42.4198 10.1037 42.4359 9.48844 42.0338 9.10959ZM25.5171 31.116C27.2757 32.2375 29.3248 32.8169 31.4091 32.783C31.4367 32.7873 31.4651 32.7894 31.494 32.789C32.8731 32.7715 34.2353 32.4828 35.5029 31.9393C36.7718 31.3953 37.9211 30.6067 38.8852 29.6184C39.8492 28.6302 40.6092 27.4618 41.1217 26.1798C41.6337 24.8989 41.8886 23.5298 41.8719 22.1505C41.8723 20.0367 41.2428 17.9707 40.0637 16.2162C38.8841 14.4609 37.208 13.0971 35.2495 12.299C33.291 11.501 31.139 11.3049 29.0686 11.7359C26.9981 12.1669 25.1031 13.2054 23.6257 14.7186C22.1483 16.2319 21.1556 18.1512 20.7744 20.2314C20.3932 22.3116 20.6408 24.4583 21.4856 26.3971C22.3304 28.3359 23.734 29.9788 25.5171 31.116ZM44.7957 39.3661L41.1595 41.0614C40.6764 41.2866 40.4632 41.8576 40.6805 42.3443C40.9018 42.8402 41.4852 43.0601 41.9788 42.8339L46.8428 40.6046C47.4717 40.3163 47.625 39.4919 47.1416 38.9969L44.7527 36.5503C44.5013 36.2826 44.2656 35.7673 44.0728 35.0206C43.8839 34.2895 43.7528 33.4054 43.6659 32.4711C43.4922 30.6038 43.5002 28.5912 43.5521 27.3198C43.5736 26.7929 43.1719 26.335 42.6357 26.3034C42.119 26.273 41.6535 26.6572 41.6234 27.1981C41.5693 28.1683 41.5078 30.3041 41.6911 32.4402C41.7828 33.5076 41.9367 34.59 42.189 35.5331C42.4376 36.462 42.7982 37.3213 43.345 37.8808L44.7957 39.3661ZM47.1897 31.6548C48.4067 32.4299 49.827 32.8248 51.2694 32.789C53.1697 32.7641 54.9825 31.9862 56.3099 30.626C57.6373 29.2659 58.3707 27.4347 58.3494 25.5344C58.35 24.0915 57.9206 22.6812 57.1161 21.4835C56.311 20.2849 55.1668 19.3536 53.8296 18.8086C52.4925 18.2636 51.0233 18.1297 49.6097 18.4241C48.1961 18.7184 46.9024 19.4276 45.8939 20.4609C44.8855 21.4943 44.208 22.8049 43.9482 24.2252C43.6885 25.6456 43.8581 27.1111 44.4355 28.4346C45.0129 29.758 45.9718 30.8792 47.1897 31.6548ZM47.9993 16.0594C48.4888 15.7521 49.3857 15.2364 50.4288 14.8543C51.481 14.4688 52.6243 14.2409 53.6313 14.4434C54.6352 14.6465 55.6185 15.3095 56.4611 16.0838C57.2956 16.8507 57.9454 17.6828 58.2845 18.1511C58.588 18.5701 59.1793 18.6957 59.6261 18.3963C60.0582 18.1068 60.1995 17.507 59.8829 17.0566C59.5109 16.5275 58.7695 15.5489 57.7696 14.6304C56.7757 13.7172 55.4853 12.8252 54.013 12.5336C52.538 12.2414 51.0091 12.5708 49.7486 13.0329C48.481 13.4976 47.433 14.1158 46.897 14.4609C46.4351 14.7583 46.3495 15.3571 46.6375 15.7806C46.9453 16.2332 47.5554 16.3381 47.9993 16.0594Z" fill="url(#paint0_linear_1_3)" stroke="white"/>
<defs>
<linearGradient id="paint0_linear_1_3" x1="33.3732" y1="0" x2="33.3732" y2="62.8437" gradientUnits="userSpaceOnUse">
<stop stop-color="#915EFF"/>
<stop offset="1" stop-color="#35225E"/>
</linearGradient>
</defs>
</svg>
